# AST/ASF file generated using VICON BodyLanguage
# -----------------------------------------------
:version 1.10
:name VICON
:units
  mass 1.0
  length 0.45
  angle deg
:documentation
   .ast/.asf automatically generated from VICON data using
   VICON BodyBuilder and BodyLanguage model FoxedUp or BRILLIANT.MOD
:root
   order TX TY TZ RX RY RZ
   axis XYZ
   position 0 0 0  
   orientation 0 0 0 
:bonedata
  begin
     id 1 
     name lhipjoint
     direction 0.561001 -0.76473 0.316963 
     length 2.4722 
     axis 0 0 0  XYZ
  end
  begin
     id 2 
     name lfemur
     direction 0.34202 -0.939693 0  
     length 7.59403  
     axis 0 0 20  XYZ
    dof rx ry rz
    limits (-160.0 20.0)
           (-70.0 70.0)
           (-60.0 70.0)
  end
  begin
     id 3 
     name ltibia
     direction 0.34202 -0.939693 0   
     length 7.89655   
     axis 0 0 20   XYZ
    dof rx
    limits (-10.0 170.0)
  end
  begin
     id 4 
     name lfoot
     direction 0.061296 -0.168409 0.98381   
     length 2.73287   
     axis -90 7.62852e-016 20   XYZ
    dof rx rz
    limits (-45.0 90.0)
           (-70.0 20.0)
  end
  begin
     id 5 
     name ltoes
     direction 1.53547e-011 -4.21984e-011 1   
     length 1.37057   
     axis -90 7.62852e-016 20   XYZ
    dof rx
    limits (-90.0 20.0)
  end
  begin
     id 6 
     name rhipjoint
     direction -0.559611 -0.765599 0.317323   
     length 2.46939  
     axis 0 0 0  XYZ 
  end
  begin
     id 7 
     name rfemur
     direction -0.34202 -0.939693 0   
     length 7.53712   
     axis 0 0 -20   XYZ
    dof rx ry rz
    limits (-160.0 20.0)
           (-70.0 70.0)
           (-70.0 60.0)
  end
  begin
     id 8 
     name rtibia
     direction -0.34202 -0.939693 0   
     length 8.12549   
     axis 0 0 -20   XYZ
    dof rx
    limits (-10.0 170.0)
 end
 begin
     id 9 
     name rfoot
     direction -0.066984 -0.184037 0.980634   
     length 2.67541  
     axis -90 -7.62852e-016 -20   XYZ
    dof rx rz
    limits (-45.0 90.0)
           (-20.0 70.0)
  end
  begin
     id 10 
     name rtoes
     direction -1.53549e-011 -4.21786e-011 1   
     length 1.34085   
     axis -90 -7.62852e-016 -20   XYZ
    dof rx
    limits (-90.0 20.0)
  end
  begin
     id 11 
     name lowerback
     direction -0.0522728 0.992594 -0.109658   
     length 2.05633   
     axis 0 0 0   XYZ
    dof rx ry rz
    limits (-20.0 45.0)
           (-30.0 30.0)
           (-30.0 30.0)
  end
  begin
     id 12 
     name upperback
     direction 0.00589338 0.999977 0.00335704   
     length 2.05845   
     axis 0 0 0   XYZ
    dof rx ry rz
    limits (-20.0 45.0)
           (-30.0 30.0)
           (-30.0 30.0)
  end
  begin
     id 13 
     name thorax
     direction 0.0292928 0.998059 0.0549487   
     length 2.09281   
     axis 0 0 0   XYZ
    dof rx ry rz
    limits (-20.0 45.0)
           (-30.0 30.0)
           (-30.0 30.0)
  end
  begin
     id 14 
     name lowerneck
     direction 0.0356368 0.980775 0.191858   
     length 1.84767   
     axis 0 0 0   XYZ
    dof rx ry rz
    limits (-20.0 45.0)
           (-30.0 30.0)
           (-30.0 30.0)
  end
  begin
     id 15 
     name upperneck
     direction -0.0227605 0.98931 -0.14404   
     length 1.89582   
     axis 0 0 0   XYZ
    dof rx ry rz
    limits (-20.0 45.0)
           (-30.0 30.0)
           (-30.0 30.0)
  end
  begin
     id 16
     name head
     direction -0.00932985 0.997511 -0.0698904  
     length 1.90213  
     axis 0 0 0   XYZ
    dof rx ry rz
    limits (-20.0 45.0)
           (-30.0 30.0)
           (-30.0 30.0)
  end
  begin
     id 17 
     name lclavicle
     direction 0.873442 0.479511 0.0846686  
     length 3.41193  
     axis 0 0 0   XYZ
    dof ry rz
    limits (-20.0 10.0)
           (0.0 20.0)
  end
  begin
     id 18 
     name lhumerus
     direction 1 -4.4897e-011 -5.62117e-018   
     length 5.59864   
     axis 180 -30 -90   XYZ
    dof rx ry rz
    limits (-60.0 90.0)
           (-90.0 90.0)
           (-90.0 90.0)
  end
  begin
     id 19
     name lradius
     direction 1 -4.48966e-011 -6.26295e-027   
     length 3.59542   
     axis 180 -30 -90   XYZ
    dof rx
    limits (-10.0 170.0)
  end
  begin
     id 20
     name lwrist
     direction 1 -4.48947e-011 -1.74096e-026   
     length 1.79771   
     axis 1.04567e-014 90 90   XYZ
    dof ry
    limits (-180.0 0.0)
 end
  begin
     id 21 
     name lhand
     direction 1 -4.49085e-011 -3.48469e-026   
     length 0.572014   
     axis 2.22196e-014 90 90   XYZ
    dof rx rz
    limits (-90.0 90.0)
           (-45.0 45.0)
  end
  begin
     id 22 
     name lfingers
     direction 1 -4.48884e-011 -6.96135e-026   
     length 0.461173   
     axis 4.44383e-014 90 90   XYZ
    dof rx
    limits (0.0 90.0)
  end
  begin
     id 23
     name lthumb
     direction 0.707107 -6.34976e-011 0.707107   
     length 0.662154   
     axis -90 45 -5.4397e-014   XYZ
    dof rx rz
    limits (-45.0 45.0)
           (-45.0 45.0)
  end
  begin
     id 24 
     name rclavicle
     direction -0.890242 0.443271 0.104786   
     length 3.46753  
     axis 0 0 0   XYZ 
    dof ry rz
    limits (-10.0 20.0)
           (-20.0 0.0)
  end
  begin
     id 25 
     name rhumerus
     direction -1 -4.48963e-011 -5.41723e-018  
     length 5.8094   
     axis 180 30 90   XYZ
    dof rx ry rz
    limits (-90.0 60.0)
           (-90.0 90.0)
           (-90.0 90.0)
  end
  begin
     id 26 
     name rradius
     direction -1 -4.48958e-011 -6.51059e-027   
     length 3.66953   
     axis 180 30 90   XYZ
    dof rx
    limits (-10.0 170.0)
  end
  begin
     id 27 
     name rwrist
     direction -1 -4.48975e-011 -1.74124e-026   
     length 1.83476   
     axis 1.04567e-014 -90 -90   XYZ
    dof ry
    limits (-180.0 0.0)
  end
  begin
     id 28
     name rhand
     direction -1 -4.49013e-011 -3.48326e-026   
     length 0.57843   
     axis 2.22196e-014 -90 -90   XYZ
    dof rx rz
    limits (-90.0 90.0)
           (-45.0 45.0)
  end
  begin
     id 29
     name rfingers
     direction -1 -4.49023e-011 -6.9669e-026   
     length 0.466345   
     axis 4.44383e-014 -90 -90   XYZ
    dof rx
    limits (0.0 90.0)
  end
  begin
     id 30
     name rthumb
     direction -0.707107 -6.34926e-011 0.707107   
     length 0.669581   
     axis -90 -45 5.4397e-014   XYZ
    dof rx rz
    limits (-45.0 45.0)
           (-45.0 45.0)
  end
:hierarchy
  begin
    root lhipjoint rhipjoint lowerback
    lhipjoint lfemur
    lfemur ltibia
    ltibia lfoot
    lfoot ltoes
    rhipjoint rfemur
    rfemur rtibia
    rtibia rfoot
    rfoot rtoes
    lowerback upperback
    upperback thorax
    thorax lowerneck lclavicle rclavicle
    lowerneck upperneck
    upperneck head
    lclavicle lhumerus
    lhumerus lradius
    lradius lwrist
    lwrist lhand lthumb
    lhand lfingers
    rclavicle rhumerus
    rhumerus rradius
    rradius rwrist
    rwrist rhand rthumb
    rhand rfingers
  end

#!OML:ASF H:\SkateBoarding\Project 1\Capture day 1\Session 1\Skater.ASF
:FULLY-SPECIFIED
:DEGREES
49
root 4.63841 18.4022 -27.9013 5.85986 22.6118 3.23399
lowerback 5.10297 -0.808818 -1.90266
upperback -0.559915 -1.28861 -2.90806
thorax -3.46665 -0.628789 -1.8299
lowerneck -19.1993 -0.43415 2.88215
upperneck 35.358 -1.97345 1.10919
head 15.7197 -0.198535 -0.382268
rclavicle 4.69132e-014 2.14687e-014
rhumerus -45.4311 -36.5103 -66.3851
rradius 28.0964
rwrist -10.8062
rhand -44.6504 1.64351
rfingers 7.12502
rthumb -17.4472 -27.5935
lclavicle 4.69132e-014 2.14687e-014
lhumerus -34.6863 -1.95337 84.7174
lradius 28.5627
lwrist 14.9696
lhand -21.4605 16.9048
lfingers 7.12502
lthumb 4.92973 46.8274
rfemur -9.4487 7.70239 21.5547
rtibia 32.3133
rfoot -37.3204 6.6537
rtoes -15.7161
lfemur -16.1326 -14.6565 -19.7648
ltibia 33.1041
lfoot -34.335 0.843047
ltoes -10.1849
50
root 4.63127 18.4077 -27.8966 5.93725 22.6134 3.15513
lowerback 5.33722 -0.82945 -1.67026
upperback -0.473496 -1.30341 -2.78647
thorax -3.51144 -0.639498 -1.8306
lowerneck -19.2789 -0.459813 2.71557
upperneck 35.2852 -1.92812 1.04597
head 15.7026 -0.213255 -0.372255
rclavicle 4.30866e-014 -3.97569e-015
rhumerus -44.6154 -35.7275 -67.0482
rradius 28.2959
rwrist -10.8476
rhand -44.7468 1.88471
rfingers 7.12502
rthumb -17.54 -27.344
lclavicle 4.30866e-014 -3.97569e-015
lhumerus -34.73 -1.76729 84.8132
lradius 28.7052
lwrist 14.9574
lhand -21.4941 17.0018
lfingers 7.12502
lthumb 4.89728 46.9253
rfemur -9.45116 7.46348 21.6081
rtibia 32.0335
rfoot -37.0001 6.83124
rtoes -15.6156
lfemur -16.7089 -13.7466 -19.6745
ltibia 33.8844
lfoot -33.6908 0.898057
ltoes -10.682
51
root 4.62302 18.4186 -27.8831 5.88802 22.6406 3.04823
lowerback 5.5972 -0.80105 -1.52569
upperback -0.352051 -1.25557 -2.62249
thorax -3.53019 -0.616917 -1.74327
lowerneck -19.2729 -0.518614 2.57039
upperneck 35.1793 -1.92853 0.966345
head 15.6481 -0.24713 -0.380913
rclavicle -4.53229e-014 3.33958e-014
rhumerus -43.923 -34.934 -67.5912
rradius 28.5493
rwrist -10.8565
rhand -44.8509 2.03156
rfingers 7.12502
rthumb -17.6402 -27.1882
lclavicle -4.53229e-014 3.33958e-014
lhumerus -34.7823 -1.65961 84.9831
lradius 28.8345
lwrist 14.9946
lhand -21.5001 16.9691
lfingers 7.12502
lthumb 4.89147 46.8927
rfemur -9.20434 7.30069 21.749
rtibia 31.6262
rfoot -36.7726 6.88276
rtoes -15.5469
lfemur -17.2383 -12.8115 -19.5998
ltibia 34.8357
lfoot -32.8834 1.40004
ltoes -12.0126
52
root 4.61219 18.4339 -27.8686 5.80385 22.706 2.86839
lowerback 5.88981 -0.70303 -1.35638
upperback -0.257371 -1.11435 -2.46599
thorax -3.59379 -0.548322 -1.68573
lowerneck -19.1122 -0.668084 2.50595
upperneck 35.017 -2.09474 0.908002
head 15.5284 -0.337557 -0.424148
rclavicle 1.44119e-015 -2.78299e-015
rhumerus -43.4336 -34.2766 -67.9782
rradius 28.8066
rwrist -10.8286
rhand -45.0166 2.19212
rfingers 7.12502
rthumb -17.7996 -27.0133
lclavicle 1.44119e-015 -2.78299e-015
lhumerus -34.8603 -1.79375 85.2054
lradius 28.9336
lwrist 14.9802
lhand -21.5257 16.9224
lfingers 7.12502
lthumb 4.86674 46.8465
rfemur -8.89541 7.2823 22.0037
rtibia 31.1372
rfoot -36.7869 6.60144
rtoes -15.9336
lfemur -17.8673 -11.8524 -19.4566
ltibia 35.9146
lfoot -31.9378 1.86974
ltoes -13.0771
53
root 4.60438 18.4475 -27.8529 5.72714 22.7304 2.7327
lowerback 6.19568 -0.744384 -1.15832
upperback -0.0980702 -1.15391 -2.30705
thorax -3.60202 -0.570039 -1.6261
lowerneck -19.2203 -0.664057 2.33584
upperneck 34.9008 -2.03003 0.910321
head 15.4994 -0.335617 -0.382162
rclavicle 8.59744e-015 2.90226e-014
rhumerus -42.5271 -33.4344 -68.6167
rradius 28.926
rwrist -10.8601
rhand -44.8727 2.91538
rfingers 7.12502
rthumb -17.6612 -26.3025
lclavicle 8.59744e-015 2.90226e-014
lhumerus -34.8527 -1.49293 85.2775
lradius 29.0637
lwrist 14.9632
lhand -21.6525 16.9237
lfingers 7.12502
lthumb 4.74431 46.8506
rfemur -8.56209 7.25729 22.193
rtibia 30.6354
rfoot -36.5735 6.69462
rtoes -15.7225
lfemur -18.532 -10.9362 -19.3926
ltibia 37.0425
lfoot -30.9975 2.16047
ltoes -13.8149
